<svg width="197" height="71" viewBox="0 0 197 71" fill="none" xmlns="http://www.w3.org/2000/svg">
<mask id="mask0_101_144" style="mask-type:alpha" maskUnits="userSpaceOnUse" x="2" y="2" width="68" height="67">
<path d="M37.9196 2.628C56.2274 3.78683 70.1057 19.3699 68.9325 37.421C67.7592 55.472 51.9772 69.1777 33.6694 68.0189C15.3616 66.86 1.48327 51.2769 2.65652 33.2259C3.82978 15.1749 19.6118 1.46916 37.9196 2.628Z" stroke="url(#paint0_linear_101_144)"/>
<path fill-rule="evenodd" clip-rule="evenodd" d="M47.2095 15.8214C43.3001 13.5939 38.8091 12.5606 34.3046 12.852C29.8 13.1433 25.4842 14.7464 21.9029 17.4584C18.3215 20.1704 15.6356 23.8695 14.1847 28.088C12.7338 32.3065 12.5831 36.8548 13.7517 41.1578C14.9203 45.4607 17.3557 49.3251 20.7499 52.2621C24.1441 55.1992 28.3446 57.077 32.8202 57.6581C37.2959 58.2392 41.8456 57.4975 45.8941 55.5268C49.9426 53.5561 53.308 50.4449 55.5647 46.5867C58.5905 41.4135 59.4101 35.266 57.8432 29.4965C56.2763 23.727 52.4513 18.808 47.2095 15.8214ZM53.1922 45.2362C51.2058 48.6316 48.2438 51.3694 44.6806 53.1035C41.1175 54.8376 37.1133 55.49 33.1744 54.9782C29.2355 54.4664 25.5389 52.8135 22.5519 50.2284C19.565 47.6434 17.422 44.2422 16.3938 40.4552C15.3657 36.6682 15.4986 32.6653 16.7758 28.9528C18.053 25.2403 20.417 21.985 23.5691 19.5984C26.7211 17.2119 30.5195 15.8013 34.4838 15.5451C38.4482 15.289 42.4006 16.1987 45.841 18.1592C50.4542 20.788 53.8203 25.1175 55.1988 30.1954C56.5774 35.2732 55.8556 40.6835 53.1922 45.2362ZM18.8878 23.7748L17.2993 22.8688C19.1933 20.1074 21.6977 17.8062 24.6239 16.1387C27.55 14.4712 30.8216 13.481 34.1919 13.2426V15.0511C31.1429 15.2859 28.1859 16.1913 25.5377 17.7008C22.8895 19.2104 20.6173 21.2858 18.8878 23.7748ZM37.4308 13.2426C40.7903 13.4837 44.0505 14.4746 46.9654 16.1403C49.8978 17.8095 52.406 20.1165 54.2993 22.8858L52.7143 23.7884C50.9843 21.303 48.7151 19.229 46.0714 17.7171C43.4278 16.2052 40.4762 15.2934 37.4308 15.0478V13.2426ZM54.32 26.547L55.9051 25.641H55.9119C57.382 28.637 58.1448 31.9228 58.143 35.2515C58.1412 38.5802 57.3749 41.8652 55.9016 44.8596L54.32 43.957C55.6334 41.2381 56.3149 38.264 56.3149 35.252C56.3149 32.2399 55.6334 29.2659 54.32 26.547ZM37.424 57.224V55.4155H37.4308C40.4681 55.1764 43.4131 54.272 46.0516 52.7683C48.6901 51.2645 50.9556 49.1991 52.6833 46.7224L54.2718 47.6283C52.3792 50.3786 49.8804 52.6704 46.9626 54.3322C44.0449 55.994 40.7839 56.9827 37.424 57.224ZM17.3096 47.6317L18.8947 46.7292C20.6283 49.2089 22.9002 51.2762 25.5452 52.7805C28.1902 54.2849 31.1417 55.1885 34.185 55.4257V57.2308C30.8208 56.9901 27.5552 56.0016 24.6329 54.3393C21.7105 52.677 19.2069 50.3839 17.3096 47.6317ZM15.6764 25.6376L17.2581 26.5436H17.2649C15.9502 29.2632 15.2676 32.2383 15.267 35.2516C15.2664 38.2649 15.9478 41.2402 17.2615 43.9604L15.6764 44.8629C14.2032 41.867 13.4378 38.5803 13.4378 35.2503C13.4378 31.9202 14.2032 28.6336 15.6764 25.6376Z" fill="url(#paint1_linear_101_144)"/>
<path fill-rule="evenodd" clip-rule="evenodd" d="M67.5955 26.3909L63.0775 28.9629C62.4654 29.3022 60.0895 26.0855 58.0712 22.6381C56.0529 19.1907 54.4094 15.5431 55.0214 15.1937L59.5463 12.6149C55.2605 8.25151 49.8258 5.15508 43.8537 3.67407V8.8248C43.8537 9.52378 39.8171 9.94113 35.8011 9.94113C31.7851 9.94113 27.745 9.52378 27.745 8.8248V3.68086C21.7709 5.15615 16.3333 8.24931 12.0455 12.6115L16.5704 15.1937C17.1824 15.533 15.5389 19.2009 13.524 22.6347C11.5092 26.0686 9.12983 29.309 8.5178 28.9595L3.9895 26.3807C2.30119 32.2248 2.30119 38.4182 3.9895 44.2624L8.50404 41.6938C9.11607 41.3545 11.5023 44.5847 13.5103 48.0185C15.5183 51.4524 17.1721 55.1135 16.5601 55.4596L12.0387 58.0384C16.3275 62.3996 21.7627 65.4956 27.7347 66.9792V61.8183C27.7347 61.1227 31.7507 60.7053 35.7907 60.7053C39.8308 60.7053 43.8434 61.1227 43.8434 61.8183V66.969C49.8162 65.493 55.2524 62.3999 59.5394 58.0384L55.0145 55.4596C54.4025 55.1203 56.046 51.4659 58.0609 48.0151C60.0758 44.5644 62.4551 41.3409 63.0671 41.6904L67.5955 44.2692C69.2838 38.4262 69.2838 32.2339 67.5955 26.3909ZM56.1148 46.9022C53.7954 50.8677 50.3367 54.0654 46.1758 56.091C42.0149 58.1167 37.3388 58.8794 32.7387 58.2825C28.1386 57.6857 23.8212 55.7563 20.3323 52.7381C16.8433 49.72 14.3396 45.7486 13.1377 41.3263C11.9358 36.904 12.0896 32.2293 13.5798 27.8933C15.0699 23.5573 17.8294 19.7547 21.5095 16.9663C25.1895 14.1779 29.6247 12.5289 34.2543 12.2279C38.8839 11.9268 43.5 12.9873 47.5189 15.2751C50.188 16.7945 52.5276 18.8179 54.4042 21.2297C56.2807 23.6415 57.6574 26.3945 58.4556 29.3315C59.2539 32.2684 59.458 35.3318 59.0563 38.3466C58.6547 41.3615 57.6552 44.2687 56.1148 46.9022ZM49.222 11.0232C49.4678 11.0077 49.7127 11.0645 49.9258 11.1864C50.2102 11.3502 50.4175 11.6183 50.5025 11.9323C50.5875 12.2462 50.5434 12.5806 50.3796 12.8626C50.2566 13.0732 50.073 13.243 49.8521 13.3505C49.6313 13.4581 49.383 13.4985 49.1388 13.4668C48.8946 13.435 48.6655 13.3325 48.4804 13.1722C48.2952 13.0118 48.1625 12.8009 48.0989 12.5661C48.0353 12.3312 48.0438 12.0831 48.1232 11.853C48.2026 11.6229 48.3494 11.4213 48.545 11.2735C48.7406 11.1258 48.9762 11.0387 49.222 11.0232ZM22.2103 57.1694C22.4561 57.1539 22.7011 57.2107 22.9141 57.3326V57.336C23.1976 57.4998 23.4043 57.7673 23.4893 58.0804C23.5742 58.3936 23.5307 58.7271 23.368 59.0088C23.245 59.2194 23.0614 59.3892 22.8405 59.4967C22.6196 59.6043 22.3714 59.6447 22.1272 59.613C21.883 59.5812 21.6538 59.4787 21.4687 59.3184C21.2836 59.158 21.1509 58.9471 21.0873 58.7123C21.0237 58.4775 21.0321 58.2293 21.1115 57.9992C21.1909 57.7691 21.3377 57.5675 21.5333 57.4197C21.7289 57.272 21.9645 57.1849 22.2103 57.1694ZM62.1071 34.3073C62.3118 34.1722 62.5526 34.1 62.7989 34.1V34.1034C62.9619 34.103 63.1234 34.1342 63.2742 34.1954C63.425 34.2565 63.5621 34.3464 63.6776 34.4598C63.7932 34.5732 63.885 34.708 63.9478 34.8565C64.0106 35.0049 64.0432 35.1641 64.0436 35.3249C64.0443 35.568 63.9719 35.8058 63.8355 36.0083C63.6992 36.2107 63.505 36.3687 63.2777 36.4622C63.0503 36.5556 62.7999 36.5805 62.5582 36.5335C62.3166 36.4864 62.0945 36.3697 61.92 36.1981C61.7456 36.0264 61.6268 35.8076 61.5784 35.5692C61.5301 35.3309 61.5546 35.0837 61.6487 34.8591C61.7428 34.6344 61.9023 34.4424 62.1071 34.3073ZM8.1035 34.3056C8.30871 34.1709 8.54983 34.0994 8.7963 34.1V34.0932C8.95975 34.0937 9.12152 34.1259 9.27236 34.188C9.42319 34.2502 9.56015 34.341 9.67541 34.4554C9.79067 34.5698 9.88198 34.7054 9.94411 34.8546C10.0062 35.0038 10.038 35.1636 10.0375 35.3249C10.0382 35.5682 9.96571 35.8061 9.82921 36.0086C9.6927 36.2111 9.49835 36.3691 9.27077 36.4625C9.0432 36.5559 8.79265 36.5805 8.55088 36.5332C8.30912 36.4859 8.08702 36.3689 7.91274 36.1969C7.73846 36.0249 7.61985 35.8057 7.57193 35.5671C7.52402 35.3285 7.54895 35.0813 7.64359 34.8567C7.73822 34.6321 7.89829 34.4403 8.1035 34.3056ZM21.1886 11.7095C21.2967 11.4922 21.4676 11.3113 21.6798 11.1898V11.183C21.8215 11.1024 21.9779 11.0502 22.1401 11.0294C22.3022 11.0086 22.467 11.0197 22.6248 11.0619C22.7827 11.1042 22.9305 11.1768 23.0598 11.2756C23.1891 11.3744 23.2974 11.4975 23.3783 11.6377C23.5008 11.8475 23.5575 12.0883 23.5414 12.3299C23.5252 12.5715 23.4369 12.8029 23.2875 12.995C23.1381 13.187 22.9345 13.3311 22.7022 13.409C22.4699 13.4869 22.2194 13.4951 21.9824 13.4326C21.7454 13.3701 21.5325 13.2397 21.3705 13.0579C21.2085 12.876 21.1048 12.6509 21.0724 12.4109C21.0401 12.1709 21.0805 11.9268 21.1886 11.7095ZM48.1815 57.8551C48.2901 57.6378 48.4616 57.4571 48.6742 57.336V57.3428C48.9588 57.1817 49.2962 57.1377 49.6135 57.2202C49.9307 57.3028 50.2022 57.5053 50.3693 57.7839C50.4922 57.9937 50.5493 58.2347 50.5333 58.4765C50.5174 58.7183 50.4291 58.95 50.2797 59.1422C50.1303 59.3345 49.9265 59.4787 49.694 59.5567C49.4615 59.6346 49.2108 59.6428 48.9737 59.5801C48.7365 59.5175 48.5235 59.3868 48.3616 59.2046C48.1997 59.0225 48.0961 58.797 48.0641 58.5568C48.032 58.3166 48.0729 58.0724 48.1815 57.8551Z" fill="url(#paint2_linear_101_144)"/>
</mask>
<g mask="url(#mask0_101_144)">
<path d="M69 0L35.0367 36.3671L72.5 72.2907H-3.99146L-2.21745 -7.53955L69 0Z" fill="url(#paint3_linear_101_144)"/>
</g>
<path d="M38.6419 39.9541H31.7999L30.4947 43.1448H27L33.5683 28.2552H36.9367L43.526 43.1448H39.9471L38.6419 39.9541ZM37.5682 37.3378L35.2314 31.6373L32.8946 37.3378H37.5682Z" fill="#11A9FE"/>
<path d="M50.9496 43.4C49.7847 43.4 48.6549 43.244 47.5602 42.932C46.4795 42.6059 45.6093 42.1876 44.9497 41.6771L46.1076 39.082C46.7391 39.55 47.49 39.9258 48.3602 40.2094C49.2303 40.493 50.1005 40.6348 50.9706 40.6348C51.939 40.6348 52.6548 40.493 53.118 40.2094C53.5811 39.9116 53.8127 39.5216 53.8127 39.0395C53.8127 38.685 53.6723 38.3943 53.3916 38.1674C53.125 37.9263 52.7741 37.7349 52.339 37.5931C51.918 37.4513 51.3426 37.2953 50.6127 37.1251C49.49 36.8557 48.5707 36.5863 47.8549 36.3168C47.1391 36.0474 46.5216 35.6149 46.0023 35.0193C45.497 34.4238 45.2444 33.6296 45.2444 32.637C45.2444 31.772 45.476 30.9921 45.9391 30.2972C46.4023 29.5882 47.097 29.0281 48.0233 28.6169C48.9636 28.2056 50.1075 28 51.4548 28C52.3952 28 53.3145 28.1134 54.2127 28.3403C55.1109 28.5672 55.8969 28.8934 56.5705 29.3188L55.5179 31.9351C54.1565 31.1552 52.7952 30.7652 51.4338 30.7652C50.4794 30.7652 49.7707 30.9212 49.3075 31.2331C48.8584 31.5451 48.6338 31.9564 48.6338 32.4668C48.6338 32.9773 48.8935 33.3602 49.4128 33.6155C49.9461 33.8565 50.7531 34.0976 51.8338 34.3387C52.9566 34.6081 53.8758 34.8775 54.5916 35.147C55.3074 35.4164 55.9179 35.8418 56.4232 36.4232C56.9425 37.0046 57.2021 37.7916 57.2021 38.7843C57.2021 39.6351 56.9635 40.415 56.4863 41.124C56.0232 41.8189 55.3214 42.3719 54.3811 42.7831C53.4408 43.1944 52.2969 43.4 50.9496 43.4Z" fill="#11A9FE"/>
<path d="M60.5851 28.2552H63.9956V43.1448H60.5851V28.2552Z" fill="#11A9FE"/>
<path d="M82.061 28.2552V43.1448H79.2611L71.9138 34.1047V43.1448H68.5455V28.2552H71.3665L78.6927 37.2953V28.2552H82.061Z" fill="#11A9FE"/>
<path d="M93.737 43.4C92.2072 43.4 90.8248 43.0668 89.5897 42.4003C88.3687 41.7338 87.4073 40.8192 86.7055 39.6564C86.0178 38.4794 85.674 37.1606 85.674 35.7C85.674 34.2394 86.0178 32.9277 86.7055 31.7649C87.4073 30.5879 88.3687 29.6662 89.5897 28.9997C90.8248 28.3332 92.2072 28 93.737 28C95.2668 28 96.6422 28.3332 97.8632 28.9997C99.0843 29.6662 100.046 30.5879 100.747 31.7649C101.449 32.9277 101.8 34.2394 101.8 35.7C101.8 37.1606 101.449 38.4794 100.747 39.6564C100.046 40.8192 99.0843 41.7338 97.8632 42.4003C96.6422 43.0668 95.2668 43.4 93.737 43.4ZM93.737 40.4646C94.6071 40.4646 95.3931 40.2661 96.0948 39.8691C96.7966 39.4578 97.3439 38.8906 97.7369 38.1674C98.1439 37.4442 98.3474 36.6217 98.3474 35.7C98.3474 34.7783 98.1439 33.9558 97.7369 33.2326C97.3439 32.5094 96.7966 31.9493 96.0948 31.5522C95.3931 31.141 94.6071 30.9354 93.737 30.9354C92.8668 30.9354 92.0809 31.141 91.3791 31.5522C90.6774 31.9493 90.123 32.5094 89.716 33.2326C89.323 33.9558 89.1265 34.7783 89.1265 35.7C89.1265 36.6217 89.323 37.4442 89.716 38.1674C90.123 38.8906 90.6774 39.4578 91.3791 39.8691C92.0809 40.2661 92.8668 40.4646 93.737 40.4646Z" fill="#11A9FE"/>
<path d="M114.374 43.4C112.823 43.4 111.421 43.0668 110.169 42.4003C108.932 41.7338 107.957 40.8192 107.246 39.6564C106.549 38.4794 106.2 37.1606 106.2 35.7C106.2 34.2394 106.549 32.9277 107.246 31.7649C107.957 30.5879 108.932 29.6662 110.169 28.9997C111.421 28.3332 112.823 28 114.374 28C115.924 28 117.319 28.3332 118.556 28.9997C119.794 29.6662 120.769 30.5879 121.48 31.7649C122.191 32.9277 122.547 34.2394 122.547 35.7C122.547 37.1606 122.191 38.4794 121.48 39.6564C120.769 40.8192 119.794 41.7338 118.556 42.4003C117.319 43.0668 115.924 43.4 114.374 43.4ZM114.374 40.4646C115.256 40.4646 116.052 40.2661 116.764 39.8691C117.475 39.4578 118.03 38.8906 118.428 38.1674C118.841 37.4442 119.047 36.6217 119.047 35.7C119.047 34.7783 118.841 33.9558 118.428 33.2326C118.03 32.5094 117.475 31.9493 116.764 31.5522C116.052 31.141 115.256 30.9354 114.374 30.9354C113.491 30.9354 112.695 31.141 111.983 31.5522C111.272 31.9493 110.71 32.5094 110.297 33.2326C109.899 33.9558 109.7 34.7783 109.7 35.7C109.7 36.6217 109.899 37.4442 110.297 38.1674C110.71 38.8906 111.272 39.4578 111.983 39.8691C112.695 40.2661 113.491 40.4646 114.374 40.4646Z" fill="white"/>
<path d="M139.913 28.2552V43.1448H137.075L129.627 34.1047V43.1448H126.212V28.2552H129.072L136.499 37.2953V28.2552H139.913Z" fill="white"/>
<path d="M144.515 28.2552H147.972V40.337H155.463V43.1448H144.515V28.2552Z" fill="white"/>
<path d="M158.461 28.2552H161.919V43.1448H158.461V28.2552Z" fill="white"/>
<path d="M180.232 28.2552V43.1448H177.393L169.945 34.1047V43.1448H166.531V28.2552H169.391L176.817 37.2953V28.2552H180.232Z" fill="white"/>
<path d="M196.4 40.3796V43.1448H184.833V28.2552H196.123V31.0204H188.269V34.2536H195.205V36.9337H188.269V40.3796H196.4Z" fill="white"/>
<defs>
<linearGradient id="paint0_linear_101_144" x1="62.4246" y1="15.3439" x2="8.91972" y2="54.2614" gradientUnits="userSpaceOnUse">
<stop stop-color="#0076B8"/>
<stop offset="1" stop-color="#11A9FE"/>
</linearGradient>
<linearGradient id="paint1_linear_101_144" x1="57.2875" y1="59.0661" x2="18.0963" y2="9.11278" gradientUnits="userSpaceOnUse">
<stop stop-color="#0076B8"/>
<stop offset="1" stop-color="#11A9FE"/>
</linearGradient>
<linearGradient id="paint2_linear_101_144" x1="57.2875" y1="59.0661" x2="18.0963" y2="9.11278" gradientUnits="userSpaceOnUse">
<stop stop-color="#0076B8"/>
<stop offset="1" stop-color="#11A9FE"/>
</linearGradient>
<linearGradient id="paint3_linear_101_144" x1="59.114" y1="62.3119" x2="8.84434" y2="3.5479" gradientUnits="userSpaceOnUse">
<stop stop-color="#0076B8"/>
<stop offset="1" stop-color="#11A9FE"/>
</linearGradient>
</defs>
</svg>
