<svg width="28" height="28" viewBox="0 0 28 28" fill="none" xmlns="http://www.w3.org/2000/svg">
<path d="M15.0965 14L21.5443 7.55218C21.6717 7.40339 21.7383 7.21199 21.7308 7.01625C21.7232 6.8205 21.642 6.63481 21.5035 6.49629C21.365 6.35778 21.1793 6.27663 20.9836 6.26907C20.7878 6.26151 20.5964 6.32809 20.4476 6.45551L13.9999 12.9033L7.55209 6.44773C7.40563 6.30127 7.20699 6.21899 6.99987 6.21899C6.79275 6.21899 6.59411 6.30127 6.44765 6.44773C6.30119 6.59419 6.21891 6.79283 6.21891 6.99995C6.21891 7.20708 6.30119 7.40572 6.44765 7.55218L12.9032 14L6.44765 20.4477C6.36623 20.5175 6.3001 20.6033 6.25342 20.6998C6.20673 20.7962 6.1805 20.9014 6.17636 21.0085C6.17222 21.1156 6.19027 21.2224 6.22937 21.3222C6.26848 21.422 6.32779 21.5127 6.40359 21.5885C6.47939 21.6643 6.57003 21.7236 6.66984 21.7627C6.76965 21.8018 6.87646 21.8198 6.98358 21.8157C7.09069 21.8115 7.1958 21.7853 7.29229 21.7386C7.38879 21.6919 7.47459 21.6258 7.54431 21.5444L13.9999 15.0966L20.4476 21.5444C20.5964 21.6718 20.7878 21.7384 20.9836 21.7308C21.1793 21.7233 21.365 21.6421 21.5035 21.5036C21.642 21.3651 21.7232 21.1794 21.7308 20.9837C21.7383 20.7879 21.6717 20.5965 21.5443 20.4477L15.0965 14Z" fill="white"/>
</svg>
