<svg width="22" height="21" viewBox="0 0 22 21" fill="none" xmlns="http://www.w3.org/2000/svg">
<path d="M11.6139 0.880859L11.6139 0.880852C11.3628 0.372844 10.6367 0.37332 10.3862 0.880656L10.3861 0.88086L7.90474 5.89922C7.65912 6.39605 7.1845 6.73982 6.63607 6.81924L1.08751 7.62402L1.08733 7.62405C0.524978 7.7054 0.302602 8.39317 0.707713 8.7876C0.70774 8.78763 0.707767 8.78766 0.707794 8.78768L4.7227 12.6939L4.72279 12.694C5.11963 13.0803 5.30143 13.6376 5.20729 14.1838M11.6139 0.880859L4.71455 14.0989M11.6139 0.880859L14.0952 5.89922M11.6139 0.880859L14.0952 5.89922M5.20729 14.1838L4.71455 14.0989M5.20729 14.1838L5.20733 14.1835L4.71455 14.0989M5.20729 14.1838L4.25969 19.6994L4.25967 19.6995C4.16413 20.255 4.74946 20.6834 5.25363 20.4188L5.25365 20.4188L10.2163 17.8148L10.2163 17.8148C10.7069 17.5574 11.2931 17.5574 11.7837 17.8148L11.7837 17.8148L16.7461 20.4187M4.71455 14.0989L3.76691 19.6147C3.60077 20.5807 4.61679 21.3177 5.48598 20.8615L10.4486 18.2575C10.7937 18.0765 11.2063 18.0765 11.5514 18.2575L16.514 20.8615M16.7461 20.4187L16.514 20.8615M16.7461 20.4187C17.2508 20.6833 17.8358 20.2546 17.7403 19.6995L17.7403 19.6994L16.7926 14.1837M16.7461 20.4187L16.7463 20.4188L16.514 20.8615M16.514 20.8615C17.3832 21.3172 18.3992 20.5807 18.233 19.6147M17.2854 14.0989L18.233 19.6147M17.2854 14.0989C17.2194 13.7155 17.347 13.3239 17.6259 13.0522L18.233 19.6147M17.2854 14.0989L16.7926 14.1837M17.2854 14.0989L16.7926 14.1835C16.6987 13.6374 16.8804 13.0803 17.2771 12.694L17.2772 12.6939L21.2923 8.7876L21.2923 8.78757C21.697 8.39388 21.4755 7.70573 20.9124 7.62401M18.233 19.6147L16.7926 14.1837M16.7926 14.1837L15.4355 6.3244M20.9124 7.62401L20.9125 7.62402L20.9842 7.1292L20.9124 7.62401ZM20.9124 7.62401L15.3639 6.81924M15.3639 6.81924L15.4355 6.3244M15.3639 6.81924C14.8155 6.73982 14.3408 6.39605 14.0952 5.89922M15.3639 6.81924L15.3638 6.81922L15.4355 6.3244M15.4355 6.3244L14.0952 5.89922" stroke="#FF9721"/>
</svg>
