<svg width="22" height="21" viewBox="0 0 22 21" fill="none" xmlns="http://www.w3.org/2000/svg">
<mask id="mask0_123_276" style="mask-type:alpha" maskUnits="userSpaceOnUse" x="0" y="0" width="22" height="21">
<path d="M12.0621 0.659246L14.5434 5.67763C14.716 6.02667 15.0496 6.26851 15.4355 6.3244L20.9842 7.1292C21.9563 7.27027 22.344 8.46211 21.641 9.14598L17.6259 13.0522C17.347 13.3239 17.2194 13.7155 17.2854 14.0989L18.233 19.6147C18.3992 20.5807 17.3832 21.3172 16.514 20.8615L11.5514 18.2575C11.2063 18.0765 10.7937 18.0765 10.4486 18.2575L5.48598 20.8615C4.61679 21.3177 3.60077 20.5807 3.76691 19.6147L4.71455 14.0989C4.78063 13.7155 4.65306 13.3239 4.37403 13.0522L0.359046 9.14598C-0.344002 8.46166 0.0437752 7.26981 1.01574 7.1292L6.56441 6.3244C6.95035 6.26851 7.28397 6.02667 7.45652 5.67763L9.93785 0.659246C10.372 -0.219749 11.6275 -0.219749 12.0621 0.659246Z" fill="#FF9721"/>
</mask>
<g mask="url(#mask0_123_276)">
<rect x="-1" width="12" height="21" fill="#FF9721"/>
</g>
</svg>
